<svg xmlns="http://www.w3.org/2000/svg" xmlns:xlink="http://www.w3.org/1999/xlink" width="258" height="145" viewBox="0 0 258 145" fill="none">
<g filter="url(#filter_39_2)">
<rect  x="4" y="2" width="250" height="137" rx="20"    fill="#F9F9F9" >
</rect>
</g>
<g >
<path     fill="#2E70D0"  d="M32.652 41.484L32.652 43.017L38.427 43.017L38.427 56.751C38.427 57.15 38.28 57.276 37.86 57.276C37.419 57.318 35.907 57.318 34.353 57.255C34.605 57.717 34.899 58.473 35.004 58.935C36.978 58.935 38.301 58.914 39.057 58.641C39.792 58.368 40.065 57.822 40.065 56.772L40.065 43.017L44.181 43.017L44.181 41.484L32.652 41.484ZM25.596 41.652L25.596 55.512L27.129 55.512L27.129 53.874L31.707 53.874L31.707 41.652L25.596 41.652ZM27.129 43.164L30.195 43.164L30.195 52.341L27.129 52.341L27.129 43.164ZM49.557 52.278L50.943 52.278L51.363 44.13L51.405 41.652L49.095 41.652L49.137 44.13L49.557 52.278ZM50.25 57.465C50.985 57.465 51.594 56.919 51.594 56.079C51.594 55.239 50.985 54.672 50.25 54.672C49.515 54.672 48.906 55.239 48.906 56.079C48.906 56.919 49.494 57.465 50.25 57.465ZM78.348 45.306L82.905 45.306C82.464 47.973 81.771 50.262 80.763 52.152C79.671 50.22 78.831 47.994 78.243 45.621L78.348 45.306ZM78.117 39.72C77.508 43.374 76.395 46.818 74.589 48.939C74.946 49.254 75.513 49.947 75.723 50.262C76.353 49.485 76.899 48.582 77.403 47.574C78.054 49.779 78.873 51.816 79.902 53.58C78.684 55.344 77.067 56.73 74.946 57.759C75.282 58.095 75.786 58.746 75.975 59.061C77.97 57.99 79.545 56.625 80.784 54.945C82.002 56.646 83.43 58.011 85.152 58.956C85.383 58.557 85.887 57.969 86.244 57.675C84.438 56.793 82.926 55.365 81.687 53.622C83.031 51.375 83.913 48.624 84.501 45.306L86.076 45.306L86.076 43.815L78.831 43.815C79.188 42.597 79.503 41.295 79.734 39.972L78.117 39.72ZM67.932 55.26C68.331 54.924 68.961 54.63 72.804 53.223L72.804 59.061L74.358 59.061L74.358 40.035L72.804 40.035L72.804 51.69L69.57 52.761L69.57 42.051L68.016 42.051L68.016 52.383C68.016 53.223 67.596 53.622 67.281 53.811C67.533 54.168 67.827 54.861 67.932 55.26ZM100.461 41.526L100.461 54.252L101.931 54.252L101.931 41.526L100.461 41.526ZM104.619 40.056L104.619 56.583C104.619 56.94 104.514 57.045 104.157 57.045C103.8 57.066 102.645 57.066 101.406 57.024C101.658 57.444 101.91 58.158 101.994 58.599C103.527 58.599 104.64 58.557 105.291 58.284C105.921 58.032 106.152 57.57 106.152 56.583L106.152 40.056L104.619 40.056ZM88.302 56.478L88.659 57.99C91.431 57.444 95.421 56.688 99.159 55.953L99.075 54.567L94.665 55.386L94.665 52.089L98.865 52.089L98.865 50.682L94.665 50.682L94.665 48.435L93.174 48.435L93.174 50.682L89.037 50.682L89.037 52.089L93.174 52.089L93.174 55.638L88.302 56.478ZM89.499 48.141C90.003 47.91 90.78 47.826 97.353 47.196C97.647 47.679 97.899 48.12 98.088 48.498L99.285 47.7C98.676 46.503 97.29 44.592 96.114 43.185L94.959 43.857C95.484 44.487 96.03 45.243 96.534 45.957L91.158 46.419C92.019 45.285 92.88 43.878 93.594 42.492L99.285 42.492L99.285 41.106L88.491 41.106L88.491 42.492L91.83 42.492C91.158 43.983 90.297 45.327 89.982 45.726C89.625 46.23 89.31 46.587 88.974 46.65C89.163 47.07 89.394 47.805 89.499 48.141ZM108.924 48.309L108.924 50.031L128.16 50.031L128.16 48.309L108.924 48.309ZM138.66 45.894L138.66 59.019L140.298 59.019L140.298 45.894L138.66 45.894ZM139.626 39.699C137.526 43.206 133.704 46.272 129.735 47.994C130.176 48.372 130.638 48.981 130.911 49.443C134.145 47.868 137.253 45.432 139.521 42.534C142.314 45.81 145.086 47.826 148.194 49.464C148.446 48.96 148.929 48.372 149.349 48.036C146.115 46.461 143.133 44.487 140.445 41.274L141.033 40.35L139.626 39.699ZM157.56 52.887C158.19 53.937 158.946 55.365 159.282 56.289L160.395 55.617C160.08 54.735 159.324 53.37 158.631 52.32L157.56 52.887ZM152.835 52.425C152.415 53.706 151.722 55.008 150.861 55.932C151.176 56.121 151.722 56.52 151.974 56.73C152.793 55.743 153.633 54.21 154.116 52.74L152.835 52.425ZM161.613 41.736L161.613 48.96C161.613 51.753 161.445 55.365 159.66 57.885C159.996 58.074 160.626 58.557 160.878 58.851C162.81 56.121 163.083 51.984 163.083 48.96L163.083 48.288L166.275 48.288L166.275 58.935L167.808 58.935L167.808 48.288L170.118 48.288L170.118 46.818L163.083 46.818L163.083 42.786C165.309 42.45 167.703 41.904 169.467 41.253L168.186 40.098C166.674 40.728 163.965 41.358 161.613 41.736ZM154.494 39.993C154.83 40.581 155.166 41.295 155.418 41.925L151.281 41.925L151.281 43.248L160.563 43.248L160.563 41.925L157.056 41.925C156.783 41.232 156.321 40.329 155.922 39.636L154.494 39.993ZM157.917 43.353C157.665 44.319 157.182 45.747 156.783 46.713L150.966 46.713L150.966 48.057L155.271 48.057L155.271 50.241L151.05 50.241L151.05 51.627L155.271 51.627L155.271 56.982C155.271 57.192 155.229 57.255 155.019 57.255C154.788 57.276 154.137 57.276 153.402 57.255C153.612 57.633 153.822 58.221 153.864 58.599C154.893 58.599 155.607 58.578 156.09 58.347C156.573 58.116 156.72 57.738 156.72 57.003L156.72 51.627L160.647 51.627L160.647 50.241L156.72 50.241L156.72 48.057L160.899 48.057L160.899 46.713L158.211 46.713C158.61 45.831 159.009 44.697 159.387 43.668L157.917 43.353ZM152.646 43.689C153.066 44.634 153.381 45.894 153.465 46.713L154.83 46.335C154.725 45.537 154.368 44.298 153.927 43.395L152.646 43.689ZM182.592 48.477C183.747 50.01 185.175 52.11 185.805 53.391L187.149 52.551C186.456 51.312 185.007 49.275 183.81 47.784L182.592 48.477ZM176.04 39.678C175.872 40.686 175.515 42.072 175.179 43.101L172.827 43.101L172.827 58.494L174.276 58.494L174.276 56.835L180.135 56.835L180.135 43.101L176.628 43.101C176.985 42.198 177.384 41.022 177.741 39.972L176.04 39.678ZM174.276 44.508L178.686 44.508L178.686 48.939L174.276 48.939L174.276 44.508ZM174.276 55.407L174.276 50.325L178.686 50.325L178.686 55.407L174.276 55.407ZM183.558 39.636C182.886 42.534 181.752 45.432 180.303 47.301C180.681 47.511 181.332 47.952 181.626 48.204C182.34 47.196 183.012 45.915 183.6 44.487L188.976 44.487C188.724 52.908 188.388 56.142 187.716 56.856C187.464 57.15 187.233 57.213 186.813 57.213C186.33 57.213 185.07 57.192 183.684 57.087C183.978 57.486 184.167 58.158 184.209 58.599C185.385 58.662 186.624 58.704 187.338 58.641C188.094 58.557 188.556 58.389 189.039 57.759C189.879 56.73 190.173 53.475 190.488 43.836C190.509 43.626 190.509 43.038 190.509 43.038L184.167 43.038C184.503 42.051 184.818 41.001 185.07 39.972L183.558 39.636ZM197.901 47.763L207.099 47.763L207.099 49.737L197.901 49.737L197.901 47.763ZM196.473 46.608L196.473 50.871L208.59 50.871L208.59 46.608L196.473 46.608ZM202.458 39.594C200.589 42.03 196.788 44.193 192.693 45.621C193.008 45.894 193.512 46.503 193.701 46.839C195.36 46.23 196.935 45.516 198.384 44.697L198.384 45.348L206.784 45.348L206.784 44.592C208.254 45.411 209.829 46.167 211.32 46.671C211.572 46.272 212.076 45.642 212.433 45.306C209.136 44.319 205.398 42.345 203.424 40.749L203.886 40.224L202.458 39.594ZM199.308 44.151C200.484 43.416 201.576 42.597 202.5 41.715C203.424 42.471 204.642 43.332 206.028 44.151L199.308 44.151ZM195.234 52.215L195.234 57.087L193.197 57.087L193.197 58.557L211.866 58.557L211.866 57.087L209.85 57.087L209.85 52.215L195.234 52.215ZM196.725 57.087L196.725 53.496L199.581 53.496L199.581 57.087L196.725 57.087ZM201.051 57.087L201.051 53.496L203.928 53.496L203.928 57.087L201.051 57.087ZM205.398 57.087L205.398 53.496L208.317 53.496L208.317 57.087L205.398 57.087ZM222.765 46.02L222.765 49.065L214.071 49.065L214.071 50.64L222.765 50.64L222.765 56.94C222.765 57.318 222.618 57.423 222.198 57.444C221.736 57.465 220.182 57.486 218.481 57.402C218.733 57.864 219.027 58.578 219.153 59.04C221.169 59.04 222.534 58.998 223.311 58.746C224.13 58.494 224.403 58.011 224.403 56.961L224.403 50.64L233.013 50.64L233.013 49.065L224.403 49.065L224.403 46.839C226.797 45.6 229.506 43.71 231.333 41.946L230.136 41.043L229.779 41.148L216.171 41.148L216.171 42.702L228.036 42.702C226.545 43.92 224.508 45.201 222.765 46.02Z">
</path>
</g>
<defs>
<filter id="filter_39_2" x="0" y="0" width="258" height="145" filterUnits="userSpaceOnUse" color-interpolation-filters="sRGB">
<feFlood flood-opacity="0" result="feFloodId_39_2"/>
<feColorMatrix in="SourceAlpha" type="matrix" values="0 0 0 0 0 0 0 0 0 0 0 0 0 0 0 0 0 0 127 0" result="hardAlpha_39_2"/>
<feOffset dx="0" dy="2"/>
<feGaussianBlur stdDeviation="2"/>
<feComposite in2="hardAlpha_39_2" operator="out"/>
<feColorMatrix type="matrix" values="0 0 0 0 0 0 0 0 0 0 0 0 0 0 0 0 0 0 0.25 0"/>
<feBlend mode="normal" in2="feFloodId_39_2" result="dropShadow_1_39_2"/>
<feBlend mode="normal" in="SourceGraphic" in2="dropShadow_1_39_2" result="shape_39_2"/>
</filter>
</defs>
</svg>
