<svg xmlns="http://www.w3.org/2000/svg" xmlns:xlink="http://www.w3.org/1999/xlink" width="39" height="39" viewBox="0 0 39 39" fill="none">
<path     fill="#9DBDE7"  d="M8 -3.79641e-15L31 -3.79641e-15C35.4183 -3.79641e-15 39 3.58172 39 8L39 31C39 35.4183 35.4183 39 31 39L8 39C3.58172 39 -6.50623e-15 35.4183 -5.69461e-15 31L1.8982e-15 8C2.16874e-15 3.58172 3.58172 -4.33749e-15 8 -3.79641e-15Z">
</path>
<path d="M18.75 5.25C15.5854 5.25 13.7208 5.48738 12.6951 5.69504C11.99 5.83779 11.5194 6.40404 11.4494 7.11996C11.3537 8.09767 11.25 9.83088 11.25 12.75C11.25 15.6691 11.3537 17.4023 11.4494 18.38C11.5194 19.0959 11.99 19.6622 12.6951 19.805C13.7208 20.0126 15.5854 20.25 18.75 20.25C21.9146 20.25 23.7792 20.0126 24.805 19.805C25.51 19.6622 25.9806 19.0959 26.0506 18.38C26.1463 17.4023 26.25 15.6691 26.25 12.75C26.25 9.83087 26.1463 8.09767 26.0506 7.11996C25.9806 6.40404 25.51 5.83779 24.805 5.69504C23.7792 5.48738 21.9146 5.25 18.75 5.25Z"   fill="#2E70D0" >
</path>
<path d="M21.25 7.75C18.0854 7.75 16.2208 7.98738 15.1951 8.19504C14.49 8.33779 14.0194 8.90404 13.9494 9.61996C13.8537 10.5977 13.75 12.3309 13.75 15.25C13.75 18.1691 13.8537 19.9023 13.9494 20.88C14.0194 21.5959 14.49 22.1622 15.1951 22.305C16.2208 22.5126 18.0854 22.75 21.25 22.75C24.4146 22.75 26.2792 22.5126 27.305 22.305C28.01 22.1622 28.4806 21.5959 28.5506 20.88C28.6463 19.9023 28.75 18.1691 28.75 15.25C28.75 12.3309 28.6463 10.5977 28.5506 9.61996C28.4806 8.90404 28.01 8.33779 27.305 8.19504C26.2792 7.98738 24.4146 7.75 21.25 7.75Z"   fill="#FFFFFF" >
</path>
<g >
<path     fill="#F7F7F7"  d="M12.292 28.274L14.245 28.274C14.056 29.417 13.759 30.398 13.327 31.208C12.859 30.38 12.499 29.426 12.247 28.409L12.292 28.274ZM12.193 25.88C11.932 27.446 11.455 28.922 10.681 29.831C10.834 29.966 11.077 30.263 11.167 30.398C11.437 30.065 11.671 29.678 11.887 29.246C12.166 30.191 12.517 31.064 12.958 31.82C12.436 32.576 11.743 33.17 10.834 33.611C10.978 33.755 11.194 34.034 11.275 34.169C12.13 33.71 12.805 33.125 13.336 32.405C13.858 33.134 14.47 33.719 15.208 34.124C15.307 33.953 15.523 33.701 15.676 33.575C14.902 33.197 14.254 32.585 13.723 31.838C14.299 30.875 14.677 29.696 14.929 28.274L15.604 28.274L15.604 27.635L12.499 27.635C12.652 27.113 12.787 26.555 12.886 25.988L12.193 25.88ZM7.828 32.54C7.999 32.396 8.269 32.27 9.916 31.667L9.916 34.169L10.582 34.169L10.582 26.015L9.916 26.015L9.916 31.01L8.53 31.469L8.53 26.879L7.864 26.879L7.864 31.307C7.864 31.667 7.684 31.838 7.549 31.919C7.657 32.072 7.783 32.369 7.828 32.54ZM18.529 29.327L22.471 29.327L22.471 30.173L18.529 30.173L18.529 29.327ZM17.917 28.832L17.917 30.659L23.11 30.659L23.11 28.832L17.917 28.832ZM20.482 25.826C19.681 26.87 18.052 27.797 16.297 28.409C16.432 28.526 16.648 28.787 16.729 28.931C17.44 28.67 18.115 28.364 18.736 28.013L18.736 28.292L22.336 28.292L22.336 27.968C22.966 28.319 23.641 28.643 24.28 28.859C24.388 28.688 24.604 28.418 24.757 28.274C23.344 27.851 21.742 27.005 20.896 26.321L21.094 26.096L20.482 25.826ZM19.132 27.779C19.636 27.464 20.104 27.113 20.5 26.735C20.896 27.059 21.418 27.428 22.012 27.779L19.132 27.779ZM17.386 31.235L17.386 33.323L16.513 33.323L16.513 33.953L24.514 33.953L24.514 33.323L23.65 33.323L23.65 31.235L17.386 31.235ZM18.025 33.323L18.025 31.784L19.249 31.784L19.249 33.323L18.025 33.323ZM19.879 33.323L19.879 31.784L21.112 31.784L21.112 33.323L19.879 33.323ZM21.742 33.323L21.742 31.784L22.993 31.784L22.993 33.323L21.742 33.323ZM29.185 28.58L29.185 29.885L25.459 29.885L25.459 30.56L29.185 30.56L29.185 33.26C29.185 33.422 29.122 33.467 28.942 33.476C28.744 33.485 28.078 33.494 27.349 33.458C27.457 33.656 27.583 33.962 27.637 34.16C28.501 34.16 29.086 34.142 29.419 34.034C29.77 33.926 29.887 33.719 29.887 33.269L29.887 30.56L33.577 30.56L33.577 29.885L29.887 29.885L29.887 28.931C30.913 28.4 32.074 27.59 32.857 26.834L32.344 26.447L32.191 26.492L26.359 26.492L26.359 27.158L31.444 27.158C30.805 27.68 29.932 28.229 29.185 28.58Z">
</path>
</g>
</svg>
