<svg xmlns="http://www.w3.org/2000/svg" xmlns:xlink="http://www.w3.org/1999/xlink" width="39" height="39" viewBox="0 0 39 39" fill="none">
<path     fill="#9DBDE7"  d="M8 -3.79641e-15L31 -3.79641e-15C35.4183 -3.79641e-15 39 3.58172 39 8L39 31C39 35.4183 35.4183 39 31 39L8 39C3.58172 39 -6.50623e-15 35.4183 -5.69461e-15 31L1.8982e-15 8C2.16874e-15 3.58172 3.58172 -4.33749e-15 8 -3.79641e-15Z">
</path>
<path d="M21.25 22.75C24.4146 22.75 26.2792 22.5126 27.3049 22.305C28.01 22.1622 28.4806 21.596 28.5506 20.88C28.6463 19.9023 28.75 18.1691 28.75 15.25C28.75 12.3309 28.6463 10.5977 28.5506 9.61996C28.4806 8.90405 28.01 8.33778 27.3049 8.19505C26.2792 7.98738 24.4146 7.75 21.25 7.75C18.0854 7.75 16.2208 7.98738 15.195 8.19505C14.49 8.33779 14.0194 8.90406 13.9494 9.61996C13.8537 10.5977 13.75 12.3309 13.75 15.25C13.75 18.1691 13.8537 19.9023 13.9494 20.88C14.0194 21.596 14.49 22.1622 15.195 22.305C16.2208 22.5126 18.0854 22.75 21.25 22.75Z"   fill="#2E70D0" >
</path>
<path d="M18.75 20.25C21.9146 20.25 23.7792 20.0126 24.8049 19.805C25.51 19.6622 25.9806 19.096 26.0506 18.38C26.1463 17.4023 26.25 15.6691 26.25 12.75C26.25 9.83087 26.1463 8.09766 26.0506 7.11996C25.9806 6.40405 25.51 5.83778 24.8049 5.69505C23.7792 5.48738 21.9146 5.25 18.75 5.25C15.5854 5.25 13.7208 5.48738 12.695 5.69505C11.99 5.83779 11.5194 6.40406 11.4494 7.11996C11.3537 8.09766 11.25 9.83088 11.25 12.75C11.25 15.6691 11.3537 17.4023 11.4494 18.38C11.5194 19.096 11.99 19.6622 12.695 19.805C13.7208 20.0126 15.5854 20.25 18.75 20.25Z"   fill="#FFFFFF" >
</path>
<g >
<path     fill="#F7F7F7"  d="M13.057 26.33C13.444 26.744 13.957 27.32 14.209 27.662L14.74 27.293C14.488 26.969 13.966 26.411 13.579 26.006L13.057 26.33ZM8.296 28.733C8.386 28.634 8.692 28.58 9.259 28.58L10.519 28.58C9.925 30.452 8.926 31.928 7.27 32.927C7.441 33.044 7.684 33.305 7.774 33.449C8.944 32.729 9.799 31.811 10.429 30.695C10.789 31.37 11.239 31.955 11.779 32.45C11.005 32.999 10.096 33.377 9.16 33.602C9.286 33.746 9.448 33.998 9.52 34.178C10.528 33.899 11.482 33.485 12.301 32.891C13.12 33.494 14.101 33.926 15.253 34.187C15.352 33.998 15.532 33.728 15.676 33.584C14.578 33.377 13.624 32.99 12.832 32.468C13.615 31.775 14.227 30.875 14.596 29.723L14.137 29.507L14.011 29.543L10.969 29.543C11.086 29.237 11.203 28.913 11.293 28.58L15.37 28.58L15.379 27.932L11.473 27.932C11.617 27.311 11.734 26.663 11.833 25.97L11.077 25.844C10.987 26.582 10.861 27.275 10.699 27.932L9.061 27.932C9.313 27.455 9.565 26.852 9.727 26.267L9.007 26.132C8.854 26.825 8.503 27.554 8.404 27.734C8.296 27.932 8.197 28.067 8.071 28.094C8.152 28.256 8.26 28.589 8.296 28.733ZM12.292 32.054C11.68 31.532 11.194 30.911 10.843 30.191L13.678 30.191C13.354 30.929 12.868 31.541 12.292 32.054ZM18.529 29.327L22.471 29.327L22.471 30.173L18.529 30.173L18.529 29.327ZM17.917 28.832L17.917 30.659L23.11 30.659L23.11 28.832L17.917 28.832ZM20.482 25.826C19.681 26.87 18.052 27.797 16.297 28.409C16.432 28.526 16.648 28.787 16.729 28.931C17.44 28.67 18.115 28.364 18.736 28.013L18.736 28.292L22.336 28.292L22.336 27.968C22.966 28.319 23.641 28.643 24.28 28.859C24.388 28.688 24.604 28.418 24.757 28.274C23.344 27.851 21.742 27.005 20.896 26.321L21.094 26.096L20.482 25.826ZM19.132 27.779C19.636 27.464 20.104 27.113 20.5 26.735C20.896 27.059 21.418 27.428 22.012 27.779L19.132 27.779ZM17.386 31.235L17.386 33.323L16.513 33.323L16.513 33.953L24.514 33.953L24.514 33.323L23.65 33.323L23.65 31.235L17.386 31.235ZM18.025 33.323L18.025 31.784L19.249 31.784L19.249 33.323L18.025 33.323ZM19.879 33.323L19.879 31.784L21.112 31.784L21.112 33.323L19.879 33.323ZM21.742 33.323L21.742 31.784L22.993 31.784L22.993 33.323L21.742 33.323ZM29.185 28.58L29.185 29.885L25.459 29.885L25.459 30.56L29.185 30.56L29.185 33.26C29.185 33.422 29.122 33.467 28.942 33.476C28.744 33.485 28.078 33.494 27.349 33.458C27.457 33.656 27.583 33.962 27.637 34.16C28.501 34.16 29.086 34.142 29.419 34.034C29.77 33.926 29.887 33.719 29.887 33.269L29.887 30.56L33.577 30.56L33.577 29.885L29.887 29.885L29.887 28.931C30.913 28.4 32.074 27.59 32.857 26.834L32.344 26.447L32.191 26.492L26.359 26.492L26.359 27.158L31.444 27.158C30.805 27.68 29.932 28.229 29.185 28.58Z">
</path>
</g>
</svg>
