<svg xmlns="http://www.w3.org/2000/svg" xmlns:xlink="http://www.w3.org/1999/xlink" width="39" height="39" viewBox="0 0 39 39" fill="none">
<path     fill="#9DBDE7"  d="M8 -3.79641e-15L31 -3.79641e-15C35.4183 -3.79641e-15 39 3.58172 39 8L39 31C39 35.4183 35.4183 39 31 39L8 39C3.58172 39 -6.50623e-15 35.4183 -5.69461e-15 31L1.8982e-15 8C2.16874e-15 3.58172 3.58172 -4.33749e-15 8 -3.79641e-15Z">
</path>
<path d="M28.16 10.2982C28.2211 10.4236 28.25 10.5574 28.25 10.6982L28.25 20.3282C28.25 20.5721 28.1516 20.8065 27.98 20.9782C27.8084 21.15 27.5742 21.2482 27.33 21.2482L12.67 21.2482C12.4258 21.2482 12.1916 21.15 12.02 20.9782C11.8484 20.8065 11.75 20.5721 11.75 20.3282L11.75 10.6982C11.75 10.5574 11.7789 10.4236 11.84 10.2982C11.9027 10.1729 11.9911 10.0641 12.1 9.97825L19.44 4.26825C19.6 4.14461 19.7954 4.07825 20 4.07825C20.2046 4.07825 20.4 4.14461 20.56 4.26825L27.9 9.97825C28.0089 10.0641 28.0973 10.1729 28.16 10.2982ZM13.58 11.1482L20 6.15825L26.42 11.1482L26.42 19.4182L13.58 19.4182L13.58 11.1482Z" fill-rule="evenodd"  fill="#FFFFFF" >
</path>
<g >
<path     fill="#F7F7F7"  d="M14.366 26.285C14.915 26.69 15.545 27.266 15.905 27.68L11.927 27.68L11.927 28.337L15.131 28.337L15.131 30.317L12.341 30.317L12.341 30.974L15.131 30.974L15.131 33.197L11.504 33.197L11.504 33.854L19.532 33.854L19.532 33.197L15.86 33.197L15.86 30.974L18.704 30.974L18.704 30.317L15.86 30.317L15.86 28.337L19.073 28.337L19.073 27.68L16.148 27.68L16.58 27.365C16.22 26.942 15.491 26.33 14.915 25.916L14.366 26.285ZM24.176 29.282L24.176 30.911C24.176 31.874 23.789 32.945 20.45 33.611C20.594 33.755 20.783 34.016 20.864 34.16C24.365 33.404 24.869 32.153 24.869 30.92L24.869 29.282L24.176 29.282ZM24.905 32.45C25.949 32.936 27.308 33.683 27.965 34.187L28.388 33.647C27.686 33.152 26.327 32.441 25.301 31.991L24.905 32.45ZM21.539 28.085L21.539 32.288L22.232 32.288L22.232 28.715L26.84 28.715L26.84 32.27L27.551 32.27L27.551 28.085L24.302 28.085C24.473 27.77 24.653 27.383 24.815 27.005L28.415 27.005L28.415 26.375L20.666 26.375L20.666 27.005L24.041 27.005C23.933 27.356 23.771 27.761 23.627 28.085L21.539 28.085Z">
</path>
</g>
</svg>
