<svg xmlns="http://www.w3.org/2000/svg" xmlns:xlink="http://www.w3.org/1999/xlink" width="39" height="39" viewBox="0 0 39 39" fill="none">
<path     fill="#9DBDE7"  d="M8 -3.79641e-15L31 -3.79641e-15C35.4183 -3.79641e-15 39 3.58172 39 8L39 31C39 35.4183 35.4183 39 31 39L8 39C3.58172 39 -6.50623e-15 35.4183 -5.69461e-15 31L1.8982e-15 8C2.16874e-15 3.58172 3.58172 -4.33749e-15 8 -3.79641e-15Z">
</path>
<g >
<path     fill="#F7F7F7"  d="M15.14 29.526L15.14 35.151L15.842 35.151L15.842 29.526L15.14 29.526ZM15.554 26.871C14.654 28.374 13.016 29.688 11.315 30.426C11.504 30.588 11.702 30.849 11.819 31.047C13.205 30.372 14.537 29.328 15.509 28.086C16.706 29.49 17.894 30.354 19.226 31.056C19.334 30.84 19.541 30.588 19.721 30.444C18.335 29.769 17.057 28.923 15.905 27.546L16.157 27.15L15.554 26.871ZM24.113 26.907C24.086 28.293 24.14 32.694 20.387 34.593C20.594 34.737 20.81 34.953 20.936 35.124C23.141 33.945 24.095 31.929 24.518 30.12C24.959 31.803 25.931 34.026 28.19 35.088C28.298 34.899 28.496 34.665 28.685 34.521C25.499 33.09 24.941 29.319 24.806 28.239C24.851 27.699 24.86 27.24 24.869 26.907L24.113 26.907Z">
</path>
</g>
<path d="M9 4L31 4L31 24L9 24L9 4Z">
</path>
<g mask="url(#mask-3_162)">
<path d="M23.5894 12.2227C24.6196 11.2862 25.142 10.1407 25.142 8.81703C25.142 7.49331 24.6196 6.34782 23.5894 5.41139C22.5593 4.47496 21.2993 4 19.8431 4C18.387 4 17.1269 4.47496 16.0968 5.41139C15.0667 6.34782 14.5442 7.49331 14.5442 8.81703C14.5442 10.1407 15.0667 11.2862 16.0968 12.2227C17.1269 13.1591 18.388 13.6341 19.8431 13.6341C21.2993 13.6341 22.5593 13.1591 23.5894 12.2227Z"   fill="#FFFFFF" >
</path>
</g>
<g mask="url(#mask-3_162)">
<path d="M28.5941 16.8442C28.4527 16.441 28.26 16.0419 28.0196 15.6594C27.7718 15.2634 27.4799 14.917 27.1532 14.6337C26.8118 14.3359 26.3933 14.0971 25.9088 13.9224C25.426 13.7487 24.8919 13.6608 24.3211 13.6608C24.0953 13.6608 23.8787 13.7445 23.4584 13.9927C23.2015 14.1457 22.8986 14.3225 22.5627 14.5189C22.2745 14.6854 21.8836 14.8426 21.4009 14.9842C20.931 15.1217 20.4538 15.192 19.982 15.192C19.5103 15.192 19.0331 15.1217 18.5614 14.9842C18.0805 14.8426 17.6895 14.6854 17.4014 14.5189C17.0673 14.3246 16.7663 14.1477 16.5038 13.9927C16.0853 13.7445 15.8669 13.6608 15.643 13.6608C15.0703 13.6608 14.5362 13.7487 14.0535 13.9224C13.5707 14.0961 13.1523 14.3359 12.809 14.6337C12.4823 14.918 12.1905 15.2634 11.9427 15.6594C11.7041 16.0419 11.5113 16.441 11.3682 16.8453C11.2305 17.2351 11.1167 17.6631 11.0268 18.1149C10.9387 18.5637 10.8781 18.9886 10.8487 19.3794C10.8194 19.762 10.8047 20.159 10.8047 20.5602C10.8047 21.6045 11.1699 22.4492 11.8895 23.0726C12.5998 23.6878 13.5414 24.0001 14.6849 24.0001L25.2792 24.0001C26.4227 24.0001 27.3625 23.6878 28.0746 23.0726C28.7941 22.4502 29.1594 21.6045 29.1594 20.5602C29.1594 20.157 29.1447 19.7599 29.1153 19.3794C29.086 18.9896 29.0254 18.5637 28.9373 18.1149C28.8474 17.6631 28.7317 17.2351 28.5941 16.8442Z"   fill="#FFFFFF" >
</path>
</g>
<defs>
<mask id="mask-3_162" style="mask-type:alpha" maskUnits="userSpaceOnUse">
<path fill="white" d="M9 4L31 4L31 24L9 24L9 4Z">
</path>
</mask>
</defs>
</svg>
